<?xml version="1.0" encoding="utf-8"?>
<!-- Generator: Adobe Illustrator 16.0.4, SVG Export Plug-In . SVG Version: 6.00 Build 0)  -->
<!DOCTYPE svg PUBLIC "-//W3C//DTD SVG 1.1//EN" "http://www.w3.org/Graphics/SVG/1.1/DTD/svg11.dtd">
<svg version="1.1" id="Calque_1" xmlns="http://www.w3.org/2000/svg" xmlns:xlink="http://www.w3.org/1999/xlink" x="0px" y="0px"
	 width="198px" height="64px" viewBox="0 0 198 64" enable-background="new 0 0 198 64" xml:space="preserve">
<title>logo</title>
<g id="Page-1">
	<g id="logo">
		<path id="Fill-2" fill="#FFFFFF" d="M38.856,36.652l-0.44,6.877h-19.82v-0.238c0.574-0.033,2.023-0.168,2.495-0.37
			c0.81-0.304,1.047-0.91,1.047-1.651V22.865c0-0.74-0.203-1.314-1.046-1.685c-0.606-0.27-1.886-0.404-2.493-0.44v-0.234H30.09
			v0.235c-0.606,0.036-1.82,0.07-2.426,0.27c-0.842,0.271-1.045,0.945-1.045,1.688v17.427c0,2.695,0.606,3,3.808,3
			c2.057,0,3.91-0.068,4.652-0.811c1.046-1.078,2.933-4.348,3.506-5.662H38.856"/>
		<path id="Fill-3" fill="#FFFFFF" d="M39.216,43.53v-0.238c0.775-0.033,2.056-0.202,2.528-0.37c0.81-0.27,1.045-0.843,1.045-1.584
			V22.865c0-0.74-0.204-1.382-1.046-1.685c-0.607-0.236-1.786-0.404-2.528-0.44v-0.234H58.26V26.1h-0.336
			c-0.438-1.515-2.596-4.853-4.18-5.055c-0.81-0.1-2.123-0.17-3.168-0.17h-3.304v10.518h2.83c1.89,0,2.496-0.606,2.9-1.045
			c0.608-0.573,1.28-2.528,1.417-3.404h0.335v9.472h-0.336c-0.103-1.01-0.945-3.068-1.417-3.573c-0.44-0.506-1.08-1.045-2.9-1.045
			h-2.83v8.36c0,2.63,0.572,2.966,3.81,2.966c2.122,0,4.38,0.034,5.19-0.774c1.18-1.216,2.966-4.451,3.472-5.563h0.303l-0.438,6.741
			H39.216"/>
		<path id="Fill-4" fill="#FFFFFF" d="M88.846,26.54h-0.302c-0.405-1.484-2.46-5.293-3.91-5.495c-0.776-0.1-1.754-0.135-2.597-0.135
			h-1.483v20.26c0,0.74,0.27,1.348,1.046,1.684c0.404,0.168,2.123,0.405,2.73,0.438v0.237H72.296v-0.238
			c0.606-0.033,2.292-0.202,2.73-0.37c0.81-0.304,1.045-0.944,1.045-1.687V20.91h-1.448c-0.776,0-1.855,0.034-2.596,0.135
			c-1.45,0.202-3.54,4.01-3.944,5.495H67.78v-6.034h21.066V26.54"/>
		<path id="Fill-5" fill="#FFFFFF" d="M89.538,43.53v-0.238c0.776-0.033,2.057-0.202,2.53-0.37c0.808-0.27,1.044-0.843,1.044-1.584
			V22.865c0-0.74-0.202-1.382-1.045-1.685c-0.607-0.236-1.787-0.404-2.53-0.44v-0.234h19.047V26.1h-0.337
			c-0.44-1.515-2.597-4.853-4.181-5.055c-0.81-0.1-2.123-0.17-3.168-0.17h-3.305v10.518h2.83c1.891,0,2.496-0.606,2.9-1.045
			c0.607-0.573,1.279-2.528,1.416-3.404h0.34v9.472h-0.34c-0.1-1.01-0.942-3.068-1.414-3.573c-0.44-0.506-1.08-1.045-2.9-1.045
			h-2.83v8.36c0,2.63,0.572,2.966,3.808,2.966c2.123,0,4.383,0.034,5.189-0.774c1.18-1.216,2.967-4.451,3.473-5.563h0.304
			l-0.438,6.741H89.538"/>
		<path id="Fill-6" fill="#FFFFFF" d="M141.104,43.53H129.24v-0.238c0.572-0.033,2.324-0.168,2.797-0.403
			c0.775-0.404,1.08-0.945,1.08-1.721V22.394l-8.496,20.765h-0.605c-0.338-1.045-1.181-3.472-1.721-4.687L115.484,22.9v15.27
			c0,2.594,0.373,3.809,1.115,4.448c0.572,0.472,2.797,0.64,3.404,0.674v0.237h-9.236v-0.238c0.573-0.066,2.291-0.066,3.101-0.641
			c0.776-0.572,1.08-1.887,1.08-4.449v-13.82c0-1.382-0.339-2.326-1.013-2.865c-0.81-0.64-2.09-0.74-3-0.776v-0.234h8.19
			l7.383,16.584l5.63-13.72c0.506-1.213,0.709-2.494,0.74-2.864h8.193v0.235c-0.607,0.036-1.854,0.204-2.461,0.406
			c-0.842,0.27-1.045,0.91-1.045,1.652v18.37c0,0.742,0.271,1.282,1.045,1.651c0.371,0.203,1.854,0.44,2.494,0.473v0.237"/>
		<path id="Fill-7" fill="#FFFFFF" d="M153.016,33.18h-2.123v8.057c0,0.742,0.235,1.382,1.045,1.686
			c0.403,0.168,1.72,0.337,2.562,0.37v0.237h-11.63v-0.238c0.605-0.033,2.056-0.202,2.494-0.37c0.81-0.304,1.044-0.91,1.044-1.651
			V22.865c0-0.74-0.202-1.382-1.044-1.685c-0.74-0.27-1.956-0.404-2.562-0.44v-0.234H154.5c4.752,0,7.82,1.92,7.82,5.595
			c0,4.788-4.586,7.081-9.305,7.081V33.18z M152.645,20.944h-1.752v11.764h1.18c4.313,0,5.225-3.54,5.225-5.798
			C157.297,23.977,156.252,20.944,152.645,20.944z"/>
		<path id="Fill-8" fill="#FFFFFF" d="M172.605,44c-3.405,0-5.664-1.078-6.776-1.82l-1.113,1.652h-0.338l-0.202-8.158h0.303
			c1.652,4.315,4.08,7.889,7.99,7.889c3.202,0,4.551-2.258,4.551-4.687c0-2.022-1.349-3.54-3.606-4.38
			c-1.72-0.676-3.067-1.114-4.584-1.754c-2.729-1.18-4.046-3.304-4.046-6.236c0-3.607,2.967-6.506,7.35-6.506
			c2.66,0,4.887,0.842,6.032,1.686l1.046-1.518h0.336l0.135,7.82h-0.303c-1.279-3.943-3.303-7.55-7.18-7.55
			c-2.123,0-3.91,1.618-3.91,4.01c0,2.024,1.111,3.338,3.438,4.384c1.517,0.707,3.168,1.146,4.483,1.72
			c2.765,1.246,4.552,2.763,4.552,6.337C180.762,41,177.357,44,172.605,44"/>
	</g>
</g>
<g>
	<g>
		<path fill-rule="evenodd" clip-rule="evenodd" fill="#75A6D5" d="M692.245,556.613
			c-237.768,0.845-438.206-195.812-433.779-442.263c4.155-231.396,193.913-427.203,437.558-425.578
			c237.73,1.586,435.153,197.464,430.258,443.368C1121.625,365.986,929.377,556.957,692.245,556.613z M538.5-146.892
			c0,3.142,0,5.118,0,7.096c0,174.783-0.004,349.565,0.045,524.349c0,2.212-1.225,5.418,0.809,6.438
			c1.973,0.989,4.003-1.759,5.877-3.007c123.023-81.959,246.019-163.96,369.014-245.961c9.383-6.256,18.747-12.54,28.761-19.24
			C808.124,32.86,673.795-56.693,538.5-146.892z"/>
		<path fill-rule="evenodd" clip-rule="evenodd" fill="#FEFEFE" d="M538.5-146.892C673.795-56.693,808.124,32.86,943.005,122.782
			c-10.014,6.7-19.378,12.984-28.761,19.24c-122.995,82.001-245.99,164.002-369.014,245.961c-1.874,1.248-3.904,3.996-5.877,3.007
			c-2.033-1.02-0.809-4.226-0.809-6.438C538.496,209.77,538.5,34.987,538.5-139.796C538.5-141.773,538.5-143.75,538.5-146.892z"/>
	</g>
</g>
<path fill="#FFFFFF" d="M691,618.5c-66.878,0-131.772-13.105-192.881-38.951c-59.007-24.958-111.995-60.682-157.49-106.178
	c-45.496-45.495-81.22-98.483-106.178-157.49C208.605,254.772,195.5,189.878,195.5,123S208.605-8.773,234.451-69.88
	c24.958-59.008,60.682-111.995,106.178-157.491c45.495-45.496,98.483-81.219,157.49-106.177
	C559.228-359.395,624.122-372.5,691-372.5s131.772,13.105,192.881,38.952c59.007,24.958,111.995,60.681,157.49,106.177
	c45.496,45.496,81.22,98.483,106.178,157.491C1173.395-8.773,1186.5,56.122,1186.5,123s-13.105,131.772-38.951,192.881
	c-24.958,59.007-60.682,111.995-106.178,157.49c-45.495,45.496-98.483,81.22-157.49,106.178
	C822.772,605.395,757.878,618.5,691,618.5z M691-310.5c-58.536,0-115.305,11.458-168.729,34.054
	c-51.617,21.833-97.98,53.094-137.803,92.916c-39.821,39.822-71.083,86.186-92.915,137.803C268.957,7.696,257.5,64.464,257.5,123
	s11.457,115.305,34.054,168.729c21.832,51.617,53.094,97.98,92.915,137.803c39.822,39.821,86.186,71.083,137.803,92.915
	C575.695,545.043,632.464,556.5,691,556.5s115.305-11.457,168.729-34.054c51.617-21.832,97.98-53.094,137.803-92.915
	c39.821-39.822,71.083-86.186,92.915-137.803C1113.043,238.305,1124.5,181.536,1124.5,123s-11.457-115.304-34.054-168.728
	c-21.832-51.617-53.094-97.981-92.915-137.803c-39.822-39.822-86.186-71.083-137.803-92.916
	C806.305-299.042,749.536-310.5,691-310.5z"/>
<path fill="#FFFFFF" d="M692.382,605.882c-65.178,0-128.419-12.771-187.967-37.957c-57.505-24.322-109.144-59.137-153.482-103.476
	s-79.153-95.978-103.476-153.482C222.271,251.419,209.5,188.178,209.5,123S222.271-5.419,247.457-64.967
	c24.322-57.504,59.137-109.143,103.476-153.482s95.978-79.153,153.482-103.475c59.548-25.187,122.789-37.958,187.967-37.958
	s128.419,12.771,187.967,37.958c57.505,24.322,109.144,59.136,153.482,103.475s79.153,95.978,103.476,153.482
	c25.187,59.548,37.957,122.79,37.957,187.967s-12.771,128.419-37.957,187.967c-24.322,57.505-59.137,109.144-103.476,153.482
	s-95.978,79.153-153.482,103.476C820.801,593.111,757.56,605.882,692.382,605.882z M692.382-309.882
	c-58.45,0-115.138,11.442-168.49,34.008c-51.544,21.801-97.841,53.017-137.604,92.78c-39.764,39.764-70.979,86.06-92.78,137.604
	C270.941,7.862,259.5,64.55,259.5,123s11.441,115.138,34.008,168.49c21.801,51.544,53.017,97.841,92.78,137.604
	c39.763,39.764,86.06,70.979,137.604,92.78c53.353,22.566,110.04,34.008,168.49,34.008s115.138-11.441,168.49-34.008
	c51.544-21.801,97.841-53.017,137.604-92.78c39.764-39.763,70.979-86.06,92.78-137.604c22.566-53.353,34.008-110.04,34.008-168.49
	s-11.441-115.138-34.008-168.49c-21.801-51.544-53.017-97.841-92.78-137.604c-39.763-39.763-86.06-70.979-137.604-92.78
	C807.52-298.44,750.832-309.882,692.382-309.882z"/>
</svg>
