<?xml version="1.0" encoding="utf-8"?>
<!-- Generator: Adobe Illustrator 21.1.0, SVG Export Plug-In . SVG Version: 6.00 Build 0)  -->
<svg version="1.1" id="Calque_1" xmlns="http://www.w3.org/2000/svg" xmlns:xlink="http://www.w3.org/1999/xlink" x="0px" y="0px"
	 viewBox="0 0 33 33" style="enable-background:new 0 0 33 33;" xml:space="preserve">
<style type="text/css">
	.st0{fill:#FFFFFF;}
	.st1{fill:#323232;}
</style>
<title>logo_square</title>
<g id="Page-1">
	<g id="logo_square">
		<path id="Fill-1" class="st0" d="M0,33h33V0H0V33z"/>
		<path id="Fill-2" class="st1" d="M24,13.3h-0.2C23.5,12.2,22,9.5,21,9.4c-0.6-0.1-1.2-0.1-1.9-0.1h-1.1v14.4c0,0.5,0.2,1,0.7,1.2
			c0.3,0.1,1.5,0.3,1.9,0.3v0.2h-8.6v-0.2c0.4,0,1.6-0.1,1.9-0.3c0.6-0.2,0.7-0.7,0.7-1.2V9.3h-1c-0.6,0-1.3,0-1.8,0.1
			c-1,0.1-2.5,2.8-2.8,3.9H9V9h15V13.3"/>
	</g>
</g>
</svg>
