<?xml version="1.0" encoding="utf-8"?>
<!-- Generator: Adobe Illustrator 21.1.0, SVG Export Plug-In . SVG Version: 6.00 Build 0)  -->
<svg version="1.1" xmlns="http://www.w3.org/2000/svg" xmlns:xlink="http://www.w3.org/1999/xlink" x="0px" y="0px"
	 viewBox="0 0 965.8 965.8" style="enable-background:new 0 0 965.8 965.8;" xml:space="preserve">
<style type="text/css">
	.st0{display:none;}
	.st1{display:inline;fill:#FFFFFF;}
	.st2{fill-rule:evenodd;clip-rule:evenodd;fill:#FEFEFE;}
	.st3{fill:#FFFFFF;}
	.st4{display:inline;fill-rule:evenodd;clip-rule:evenodd;fill:#FEFEFE;}
</style>
<g id="Calque_1" class="st0">
	<rect x="306.8" y="213.8" class="st1" width="134.5" height="538.1"/>
	<rect x="524.5" y="213.8" class="st1" width="134.5" height="538.1"/>
</g>
<g id="Calque_2">
	<path class="st2" d="M327.5,212.1C462.8,302.3,597.1,391.9,732,481.8c-10,6.7-19.4,13-28.8,19.2c-123,82-246,164-369,246
		c-1.9,1.2-3.9,4-5.9,3c-2-1-0.8-4.2-0.8-6.4c0-174.8,0-349.6,0-524.3C327.5,217.2,327.5,215.2,327.5,212.1z"/>
	<path class="st3" d="M481.4,964.9c-65.2,0-128.4-12.8-188-38c-57.5-24.3-109.1-59.1-153.5-103.5c-44.3-44.3-79.2-96-103.5-153.5
		c-25.2-59.5-38-122.8-38-188c0-65.2,12.8-128.4,38-188c24.3-57.5,59.1-109.1,103.5-153.5c44.3-44.3,96-79.2,153.5-103.5
		c59.5-25.2,122.8-38,188-38c65.2,0,128.4,12.8,188,38c57.5,24.3,109.1,59.1,153.5,103.5c44.3,44.3,79.2,96,103.5,153.5
		c25.2,59.5,38,122.8,38,188c0,65.2-12.8,128.4-38,188c-24.3,57.5-59.1,109.1-103.5,153.5c-44.3,44.3-96,79.2-153.5,103.5
		C609.8,952.1,546.6,964.9,481.4,964.9z M481.4,49.1c-58.5,0-115.1,11.4-168.5,34c-51.5,21.8-97.8,53-137.6,92.8
		c-39.8,39.8-71,86.1-92.8,137.6c-22.6,53.4-34,110-34,168.5s11.4,115.1,34,168.5c21.8,51.5,53,97.8,92.8,137.6
		c39.8,39.8,86.1,71,137.6,92.8c53.4,22.6,110,34,168.5,34s115.1-11.4,168.5-34c51.5-21.8,97.8-53,137.6-92.8
		c39.8-39.8,71-86.1,92.8-137.6c22.6-53.4,34-110,34-168.5s-11.4-115.1-34-168.5c-21.8-51.5-53-97.8-92.8-137.6
		c-39.8-39.8-86.1-71-137.6-92.8C596.5,60.6,539.8,49.1,481.4,49.1z"/>
</g>
<g id="Calque_3" class="st0">
	<path class="st4" d="M327.5,212.1C462.8,302.3,597.1,391.9,732,481.8c-10,6.7-19.4,13-28.8,19.2c-123,82-246,164-369,246
		c-1.9,1.2-3.9,4-5.9,3c-2-1-0.8-4.2-0.8-6.4c0-174.8,0-349.6,0-524.3C327.5,217.2,327.5,215.3,327.5,212.1z"/>
</g>
</svg>
