<?xml version="1.0" encoding="utf-8"?>
<!-- Generator: Adobe Illustrator 21.1.0, SVG Export Plug-In . SVG Version: 6.00 Build 0)  -->
<svg version="1.1" id="Calque_1" xmlns="http://www.w3.org/2000/svg" xmlns:xlink="http://www.w3.org/1999/xlink" x="0px" y="0px"
	 viewBox="701.6 -319.2 972.1 968.8" style="enable-background:new 701.6 -319.2 972.1 968.8;" xml:space="preserve">
<style type="text/css">
	.st0{fill-rule:evenodd;clip-rule:evenodd;fill:#FEFEFE;}
	.st1{fill:#FFFFFF;}
</style>
<path class="st0" d="M1033.7-106.2c135.3,90.2,269.6,179.8,404.5,269.7c-10,6.7-19.4,13-28.8,19.2c-123,82-246,164-369,246
	c-1.9,1.2-3.9,4-5.9,3c-2-1-0.8-4.2-0.8-6.4c0-174.8,0-349.6,0-524.3C1033.7-101.1,1033.7-103.1,1033.7-106.2z"/>
<path class="st1" d="M1187.5,646.6c-65.2,0-128.4-12.8-188-38c-57.5-24.3-109.1-59.1-153.5-103.5c-44.3-44.3-79.2-96-103.5-153.5
	c-25.2-59.5-38-122.8-38-188s12.8-128.4,38-188c24.3-57.5,59.1-109.1,103.5-153.5c44.3-44.3,96-79.2,153.5-103.5
	c59.5-25.2,122.8-38,188-38s128.4,12.8,188,38c57.5,24.3,109.1,59.1,153.5,103.5c44.3,44.3,79.2,96,103.5,153.5
	c25.2,59.5,38,122.8,38,188s-12.8,128.4-38,188c-24.3,57.5-59.1,109.1-103.5,153.5c-44.3,44.3-96,79.2-153.5,103.5
	C1316,633.8,1252.7,646.6,1187.5,646.6z M1187.5-269.2c-58.5,0-115.1,11.4-168.5,34c-51.5,21.8-97.8,53-137.6,92.8
	c-39.8,39.8-71,86.1-92.8,137.6c-22.6,53.4-34,110-34,168.5s11.4,115.1,34,168.5c21.8,51.5,53,97.8,92.8,137.6
	c39.8,39.8,86.1,71,137.6,92.8c53.4,22.6,110,34,168.5,34s115.1-11.4,168.5-34c51.5-21.8,97.8-53,137.6-92.8
	c39.8-39.8,71-86.1,92.8-137.6c22.6-53.4,34-110,34-168.5s-11.4-115.1-34-168.5c-21.8-51.5-53-97.8-92.8-137.6
	c-39.8-39.8-86.1-71-137.6-92.8C1302.7-257.8,1246-269.2,1187.5-269.2z"/>
</svg>
